#!OML:ASF E:\Steps\Project 1\Capture day 1\Session 2\Subject.ASF
:FULLY-SPECIFIED
:DEGREES
112
root 16.9089 17.9637 20.6012 -155.98 -2.90774 177.887
lowerback -30.4139 -1.98213 -6.43063
upperback -0.747919 -1.0348 0.616933
thorax 15.2727 -1.17657 3.68972
lowerneck -5.39127 -0.870506 0.419482
upperneck 15.2364 -2.12923 1.94689
head 5.49512 -1.12438 0.381304
rclavicle -5.73525e-015 8.4732e-015
rhumerus -39.5357 -20.741 -75.0107
rradius 32.2463
rwrist -1.76448
rhand -5.83157 -54.0088
rfingers 7.12502
rthumb 19.9943 -83.0001
lclavicle -5.73525e-015 8.4732e-015
lhumerus -31.2579 5.5605 81.3783
lradius 22.2505
lwrist -5.33238
lhand -20.4808 -12.9975
lfingers 7.12502
lthumb 5.87568 16.9011
rfemur -19.7021 4.92718 21.7
rtibia 6.01816
rfoot -18.983 -0.315713
rtoes 1.80736
lfemur -22.0048 -9.21213 -21.4673
ltibia 10.5739
lfoot -7.62621 -3.04506
ltoes -3.09648
113
root 16.9064 17.9654 20.5996 -156.067 -2.90152 177.927
lowerback -30.3954 -1.98345 -6.44256
upperback -0.678659 -1.02973 0.686779
thorax 15.3488 -1.17647 3.777
lowerneck -5.48579 -0.885489 0.336385
upperneck 15.186 -2.1266 1.93664
head 5.4961 -1.12345 0.391889
rclavicle 8.19987e-016 -5.18083e-015
rhumerus -39.4391 -20.7153 -74.9386
rradius 32.2218
rwrist -1.7222
rhand -5.63013 -53.8993
rfingers 7.12502
rthumb 20.1879 -82.8703
lclavicle 8.19987e-016 -5.18083e-015
lhumerus -31.1449 5.73171 81.445
lradius 22.2216
lwrist -5.50405
lhand -20.4682 -13.044
lfingers 7.12502
lthumb 5.88779 16.8542
rfemur -19.642 4.99679 21.726
rtibia 6.09193
rfoot -19.0175 -0.369811
rtoes 1.7121
lfemur -21.8967 -9.22348 -21.4511
ltibia 10.5718
lfoot -7.64898 -3.00628
ltoes -3.66471
114
root 16.9082 17.9635 20.6023 -155.963 -2.92094 177.938
lowerback -30.5016 -2.00669 -6.49713
upperback -0.695651 -1.04621 0.727529
thorax 15.3802 -1.19186 3.84216
lowerneck -5.44958 -0.843896 0.237217
upperneck 15.1337 -2.06446 2.00825
head 5.47456 -1.09324 0.435158
rclavicle -4.4944e-015 -7.62836e-015
rhumerus -39.4186 -20.7348 -74.8999
rradius 32.1909
rwrist -1.6474
rhand -5.49585 -53.8034
rfingers 7.12502
rthumb 20.3169 -82.7607
lclavicle -4.4944e-015 -7.62836e-015
lhumerus -31.1225 5.83437 81.4496
lradius 22.2235
lwrist -5.61876
lhand -20.6157 -12.9581
lfingers 7.12502
lthumb 5.74539 16.944
rfemur -19.7743 5.09579 21.7437
rtibia 6.10782
rfoot -18.8933 -0.541298
rtoes 1.49594
lfemur -22.0583 -9.15539 -21.4117
ltibia 10.6619
lfoot -7.60189 -3.14316
ltoes -2.42267
115
root 16.9038 17.9646 20.601 -156.053 -2.87458 177.926
lowerback -30.4201 -1.94739 -6.4077
upperback -0.704206 -0.995099 0.662098
thorax 15.3246 -1.15864 3.74416
lowerneck -5.35657 -0.784065 0.178534
upperneck 15.1195 -1.99993 2.13843
head 5.45535 -1.05921 0.490085
rclavicle -6.36422e-015 3.72721e-016
rhumerus -39.5017 -20.7306 -74.9576
rradius 32.1927
rwrist -1.57641
rhand -5.43702 -53.7795
rfingers 7.12502
rthumb 20.3735 -82.7308
lclavicle -6.36422e-015 3.72721e-016
lhumerus -31.1799 5.77656 81.3895
lradius 22.297
lwrist -5.56502
lhand -20.8348 -12.7176
lfingers 7.12502
lthumb 5.5339 17.1901
rfemur -19.6753 5.06406 21.7003
rtibia 6.09964
rfoot -18.8304 -0.46593
rtoes 1.52415
lfemur -21.9241 -9.23403 -21.4657
ltibia 10.6215
lfoot -7.65432 -2.97593
ltoes -3.57739
116
root 16.906 17.9626 20.6052 -155.974 -2.88511 177.953
lowerback -30.3804 -1.9139 -6.32975
upperback -0.806959 -0.991729 0.610163
thorax 15.1822 -1.14955 3.64508
lowerneck -5.22598 -0.683358 0.0969965
upperneck 15.0593 -1.88834 2.35966
head 5.41572 -0.997952 0.580441
rclavicle 3.35527e-015 -1.94436e-015
rhumerus -39.6317 -20.7071 -75.0548
rradius 32.1977
rwrist -1.5335
rhand -5.23845 -53.7751
rfingers 7.12502
rthumb 20.5643 -82.7059
lclavicle 3.35527e-015 -1.94436e-015
lhumerus -31.2975 5.56346 81.3174
lradius 22.4022
lwrist -5.38328
lhand -20.8977 -12.629
lfingers 7.12502
lthumb 5.47308 17.2803
rfemur -19.7971 5.12226 21.7364
rtibia 6.13781
rfoot -18.8676 -0.461719
rtoes 1.65091
lfemur -22.0668 -9.08998 -21.4412
ltibia 10.6878
lfoot -7.67854 -3.03926
ltoes -5.20691
117
root 16.9065 17.9655 20.603 -156.135 -2.95053 178.003
lowerback -30.2868 -1.93542 -6.34633
upperback -0.770039 -1.02012 0.683205
thorax 15.1895 -1.16264 3.72565
lowerneck -5.16545 -0.65255 0.0819614
upperneck 15.0303 -1.83503 2.31055
head 5.39525 -0.976431 0.571415
rclavicle 5.3206e-015 4.63417e-015
rhumerus -39.6211 -20.6709 -74.9928
rradius 32.1853
rwrist -1.57766
rhand -5.01428 -53.8465
rfingers 7.12502
rthumb 20.7797 -82.7538
lclavicle 5.3206e-015 4.63417e-015
lhumerus -31.2957 5.54152 81.3987
lradius 22.4223
lwrist -5.31427
lhand -20.9971 -12.7428
lfingers 7.12502
lthumb 5.37714 17.1689
rfemur -19.5744 5.16393 21.805
rtibia 6.06791
rfoot -18.934 -0.566381
rtoes 1.93404
lfemur -21.8636 -9.23692 -21.347
ltibia 10.6309
lfoot -7.64534 -2.97433
ltoes -3.89064
118
root 16.9115 17.9621 20.6098 -156.055 -3.09853 178.053
lowerback -30.2773 -1.98942 -6.36074
upperback -0.804805 -1.09956 0.737238
thorax 15.1549 -1.20024 3.76011
lowerneck -5.16951 -0.494665 0.024734
upperneck 14.8278 -1.60061 2.40098
head 5.33115 -0.852969 0.624591
rclavicle -1.30452e-016 -2.08724e-015
rhumerus -39.5773 -20.6331 -75.0082
rradius 32.1661
rwrist -1.67993
rhand -4.96309 -53.8427
rfingers 7.12502
rthumb 20.8289 -82.7446
lclavicle -1.30452e-016 -2.08724e-015
lhumerus -31.2613 5.64613 81.356
lradius 22.4122
lwrist -5.31306
lhand -21.0795 -13.0192
lfingers 7.12502
lthumb 5.29761 16.8946
rfemur -19.6694 5.17072 21.9253
rtibia 6.07126
rfoot -18.9438 -0.738331
rtoes 1.93263
lfemur -22.0573 -9.20406 -21.2237
ltibia 10.7724
lfoot -7.61537 -3.15211
ltoes -2.92977
119
root 16.9094 17.9624 20.6102 -156.128 -3.10382 178.066
lowerback -30.2247 -1.97757 -6.3217
upperback -0.757218 -1.08904 0.727514
thorax 15.1858 -1.1908 3.73453
lowerneck -5.1408 -0.0791581 -0.309838
upperneck 14.1571 -0.985093 2.85118
head 5.11319 -0.523648 0.859351
rclavicle -1.60985e-014 9.15652e-015
rhumerus -39.4503 -20.6558 -75.0591
rradius 32.0903
rwrist -1.70691
rhand -5.05129 -53.8839
rfingers 7.12502
rthumb 20.7441 -82.7951
lclavicle -1.60985e-014 9.15652e-015
lhumerus -31.1697 5.70084 81.3131
lradius 22.4123
lwrist -5.30728
lhand -21.0573 -13.1754
lfingers 7.12502
lthumb 5.319 16.7378
rfemur -19.5923 5.09499 21.9484
rtibia 6.07026
rfoot -18.9201 -0.671009
rtoes 1.90664
lfemur -21.9936 -9.22617 -21.235
ltibia 10.8166
lfoot -7.70567 -3.12619
ltoes -3.55214
120
root 16.9105 17.9584 20.6154 -155.946 -3.0693 178.086
lowerback -30.4005 -1.95812 -6.31094
upperback -0.765208 -1.06244 0.723148
thorax 15.2527 -1.18282 3.7308
lowerneck -5.2069 0.170621 -0.361549
upperneck 13.8665 -0.611128 2.92454
head 5.0285 -0.328323 0.913201
rclavicle -3.57191e-017 3.11843e-015
rhumerus -39.3397 -20.7604 -75.087
rradius 32.0269
rwrist -1.65874
rhand -5.08198 -54.0669
rfingers 7.12502
rthumb 20.7146 -82.9814
lclavicle -3.57191e-017 3.11843e-015
lhumerus -31.0498 5.56716 81.3625
lradius 22.3887
lwrist -5.24371
lhand -21.2946 -13.1358
lfingers 7.12502
lthumb 5.08987 16.7831
rfemur -19.873 5.1077 21.9651
rtibia 6.17197
rfoot -18.9451 -0.628477
rtoes 1.94145
lfemur -22.2497 -9.14512 -21.1905
ltibia 10.8884
lfoot -7.739 -3.18286
ltoes -3.68696
121
root 16.9084 17.9591 20.6154 -155.989 -3.02816 178.106
lowerback -30.3925 -1.937 -6.22879
upperback -0.726137 -1.05605 0.719631
thorax 15.2943 -1.17359 3.68586
lowerneck -5.36041 0.0979226 -0.135461
upperneck 14.1871 -0.716753 2.61533
head 5.15443 -0.390554 0.773492
rclavicle 1.49089e-015 1.98163e-015
rhumerus -39.2474 -20.6884 -75.1707
rradius 32.0209
rwrist -1.61657
rhand -5.09103 -54.272
rfingers 7.12502
rthumb 20.7059 -83.1874
lclavicle 1.49089e-015 1.98163e-015
lhumerus -30.9805 5.52636 81.3841
lradius 22.3708
lwrist -5.19032
lhand -21.4744 -13.2713
lfingers 7.12502
lthumb 4.91633 16.6517
rfemur -19.8515 5.07433 21.9671
rtibia 6.2048
rfoot -18.9843 -0.540524
rtoes 1.73923
lfemur -22.1708 -9.25784 -21.1661
ltibia 10.8282
lfoot -7.77672 -3.03141
ltoes -3.62677
122
root 16.9112 17.9581 20.6195 -155.988 -3.09248 178.16
lowerback -30.3559 -1.85378 -6.18611
upperback -0.80737 -0.96854 0.655607
thorax 15.1694 -1.12918 3.62754
lowerneck -5.23387 -0.0132457 0.157616
upperneck 14.6865 -0.954516 2.53347
head 5.29022 -0.514679 0.683956
rclavicle 8.25578e-015 -2.39784e-015
rhumerus -39.4738 -20.9139 -75.1519
rradius 31.9978
rwrist -1.50476
rhand -4.98487 -54.083
rfingers 7.12502
rthumb 20.808 -82.9873
lclavicle 8.25578e-015 -2.39784e-015
lhumerus -31.0919 5.16654 81.3377
lradius 22.4276
lwrist -5.04923
lhand -21.3419 -13.4937
lfingers 7.12502
lthumb 5.04423 16.4263
rfemur -19.8725 5.17052 22.0456
rtibia 6.23789
rfoot -18.9517 -0.62244
rtoes 1.9883
lfemur -22.2182 -9.23158 -21.0645
ltibia 10.8381
lfoot -7.72997 -3.14318
ltoes -2.26474
123
root 16.91 17.9602 20.619 -156.095 -3.11504 178.196
lowerback -30.2853 -1.86266 -6.11653
upperback -0.775874 -1.0072 0.703161
thorax 15.1804 -1.14068 3.62841
lowerneck -5.12177 0.16832 -0.149103
upperneck 14.6079 -0.703657 2.76963
head 5.24421 -0.394139 0.823563
rclavicle 1.36393e-015 -1.38947e-014
rhumerus -39.3046 -20.9286 -75.1146
rradius 31.7977
rwrist -1.38238
rhand -4.756 -53.556
rfingers 7.12502
rthumb 21.0278 -82.4359
lclavicle 1.36393e-015 -1.38947e-014
lhumerus -31.1189 5.30325 81.3503
lradius 22.4982
lwrist -5.03347
lhand -21.2224 -13.6861
lfingers 7.12502
lthumb 5.1596 16.2311
rfemur -19.7692 5.19708 22.088
rtibia 6.24881
rfoot -18.9149 -0.710391
rtoes 2.21145
lfemur -22.1029 -9.2988 -21.0108
ltibia 10.8119
lfoot -7.72843 -3.14509
ltoes -1.10423
124
root 16.9133 17.9572 20.6248 -155.974 -3.14173 178.244
lowerback -30.3425 -1.87556 -6.10367
upperback -0.833728 -1.04418 0.750856
thorax 15.1433 -1.15958 3.65661
lowerneck -5.02181 0.361469 -0.38472
upperneck 14.5339 -0.442805 2.98926
head 5.20015 -0.265879 0.946414
rclavicle -8.32411e-016 -1.43373e-014
rhumerus -39.3041 -20.8839 -75.087
rradius 31.7454
rwrist -1.33838
rhand -4.72583 -53.4894
rfingers 7.12502
rthumb 21.0568 -82.3662
lclavicle -8.32411e-016 -1.43373e-014
lhumerus -31.1838 5.35995 81.3447
lradius 22.5275
lwrist -5.11572
lhand -21.3438 -13.8651
lfingers 7.12502
lthumb 5.04235 16.0549
rfemur -20.002 5.24609 22.1716
rtibia 6.38432
rfoot -19.0042 -0.824828
rtoes 1.62522
lfemur -22.3232 -9.12543 -20.9495
ltibia 10.9553
lfoot -7.7373 -3.27535
ltoes -1.85684
125
root 16.9142 17.9551 20.6259 -155.968 -3.13495 178.308
lowerback -30.3556 -1.86157 -6.05412
upperback -0.850816 -1.04871 0.770718
thorax 15.13 -1.15923 3.64917
lowerneck -4.95038 0.530239 -0.409447
upperneck 14.6304 -0.227043 3.0136
head 5.21381 -0.164406 0.970733
rclavicle 7.31465e-016 -3.18677e-015
rhumerus -39.3819 -20.78 -75.1135
rradius 31.7976
rwrist -1.3091
rhand -4.76563 -53.6472
rfingers 7.12502
rthumb 21.0186 -82.5282
lclavicle 7.31465e-016 -3.18677e-015
lhumerus -31.2108 5.40017 81.3011
lradius 22.531
lwrist -5.12666
lhand -21.5076 -13.8113
lfingers 7.12502
lthumb 4.8842 16.1124
rfemur -20.1042 5.38672 22.2355
rtibia 6.55551
rfoot -19.0792 -0.94841
rtoes 1.07801
lfemur -22.3507 -9.02069 -20.8983
ltibia 11.004
lfoot -7.7532 -3.2964
ltoes -3.05044
126
root 16.9163 17.9548 20.6281 -156.002 -3.17485 178.374
lowerback -30.4091 -1.86723 -5.98714
upperback -0.778177 -1.06376 0.767257
thorax 15.2415 -1.16167 3.60297
lowerneck -5.13171 0.69964 -0.189216
upperneck 14.992 -0.0249461 2.84233
head 5.354 -0.0684086 0.89394
rclavicle -9.27168e-015 4.50216e-015
rhumerus -39.1772 -20.8757 -75.2267
rradius 31.6556
rwrist -1.11424
rhand -4.95694 -53.3717
rfingers 7.12502
rthumb 20.8348 -82.2731
lclavicle -9.27168e-015 4.50216e-015
lhumerus -31.0702 5.41386 81.2316
lradius 22.5306
lwrist -5.05397
lhand -21.5653 -13.5353
lfingers 7.12502
lthumb 4.82854 16.3897
rfemur -20.1071 5.51379 22.3152
rtibia 6.63562
rfoot -19.069 -1.06577
rtoes 0.987457
lfemur -22.3451 -8.98888 -20.8169
ltibia 11.0375
lfoot -7.75144 -3.35564
ltoes -3.09389
